<svg width="32" height="32" viewBox="0 0 32 32" fill="none" xmlns="http://www.w3.org/2000/svg">
<rect width="32" height="32" rx="8" fill="#003F72"/>
<g transform="translate(4, 4) scale(0.75)">
  {/* Modern H */}
  <path
    d="M40 40V160M40 100H80M80 40V160"
    stroke="#00C974"
    strokeWidth="12"
    strokeLinecap="round"
    strokeLinejoin="round"
  />
  {/* Calligraphic H */}
  <path
    d="M100 40C120 40 140 40 160 40C160 60 160 80 140 80C120 80 100 80 100 80"
    stroke="#00C974"
    strokeWidth="12"
    strokeLinecap="round"
    strokeLinejoin="round"
  />
  <path
    d="M100 80C100 100 100 120 100 140C100 160 120 160 140 160C160 160 160 140 160 140"
    stroke="#00C974"
    strokeWidth="12"
    strokeLinecap="round"
    strokeLinejoin="round"
  />
  <path
    d="M100 110H140"
    stroke="#00C974"
    strokeWidth="12"
    strokeLinecap="round"
    strokeLinejoin="round"
  />
  {/* Dot */}
  <circle cx="175" cy="100" r="6" fill="#FF4DBD"/>
</g>
</svg>

